<?xml version="1.0" encoding="UTF-8" standalone="no"?>
<!-- Created with Inkscape (http://www.inkscape.org/) -->

<svg
   width="100mm"
   height="100mm"
   viewBox="0 0 100 100"
   version="1.1"
   id="svg1"
   xml:space="preserve"
   inkscape:version="1.3-dev (c4ce856, 2023-01-04)"
   sodipodi:docname="jaffle_icon.svg"
   inkscape:export-filename="jaffle_icon_32.png"
   inkscape:export-xdpi="8.1280003"
   inkscape:export-ydpi="8.1280003"
   xmlns:inkscape="http://www.inkscape.org/namespaces/inkscape"
   xmlns:sodipodi="http://sodipodi.sourceforge.net/DTD/sodipodi-0.dtd"
   xmlns:xlink="http://www.w3.org/1999/xlink"
   xmlns="http://www.w3.org/2000/svg"
   xmlns:svg="http://www.w3.org/2000/svg"><sodipodi:namedview
     id="namedview1"
     pagecolor="#ffffff"
     bordercolor="#000000"
     borderopacity="0.25"
     inkscape:showpageshadow="2"
     inkscape:pageopacity="0.0"
     inkscape:pagecheckerboard="0"
     inkscape:deskcolor="#d1d1d1"
     inkscape:document-units="mm"
     inkscape:zoom="1.1893044"
     inkscape:cx="163.54098"
     inkscape:cy="184.14125"
     inkscape:window-width="1680"
     inkscape:window-height="977"
     inkscape:window-x="0"
     inkscape:window-y="0"
     inkscape:window-maximized="1"
     inkscape:current-layer="layer1" /><defs
     id="defs1" /><g
     inkscape:label="Layer 1"
     inkscape:groupmode="layer"
     id="layer1"
     style="display:inline"
     transform="translate(-25.811629,-121.70887)"><path
       id="path344"
       style="fill:#e7d5b8;fill-opacity:1;stroke:none;stroke-width:1;stroke-linecap:round;stroke-linejoin:round;stroke-miterlimit:4.3;stroke-opacity:1"
       d="m 113.82812,131.35938 c -2.85874,4.12913 -6.27039,7.93992 -9.08593,12.13281 -2.74283,4.41319 -4.845138,9.18094 -7.180978,13.81314 -6.741406,13.80185 -13.504289,27.59816 -19.77707,41.62007 -1.199727,2.82382 -2.543885,5.60842 -3.399531,8.56104 -0.373394,1.52756 -0.632792,3.09504 -0.835783,4.64637 0.19849,0.69844 1.052671,0.45916 1.396484,0.0156 1.87994,-1.63824 3.526795,-3.55822 4.636063,-5.80491 1.990024,-3.89261 4.086784,-7.81584 5.076975,-12.10568 0.272831,-1.85483 0.563236,-3.74019 1.434977,-5.42724 1.462764,-3.31754 3.90187,-6.03796 6.247473,-8.74911 2.172054,-2.68455 3.161251,-6.10306 3.858419,-9.42869 0.501276,-2.06885 0.284521,-4.37241 1.449219,-6.23633 1.487987,-2.2404 3.666792,-4.04006 4.802732,-6.5664 0.94729,-2.0021 2.13058,-4.06753 1.97735,-6.36132 0.0899,-1.25193 -0.18721,-2.5742 0.24554,-3.7747 1.03971,-2.15237 2.92445,-3.67245 4.61582,-5.26638 0.95478,-0.81232 2.05928,-1.51891 2.58512,-2.71284 0.86022,-1.58751 1.93159,-2.99576 3.03906,-4.35937 0.82823,-1.25785 0.74975,-2.87765 0.66384,-4.32243 0.23359,-0.64578 -0.9431,-0.94203 -1.17645,-0.51555 -0.19111,0.28063 -0.38222,0.56126 -0.57333,0.84189 z" /><path
       id="path343"
       style="fill:#e59c6a;fill-opacity:1;stroke:none;stroke-width:1;stroke-linecap:round;stroke-linejoin:round;stroke-miterlimit:4.3;stroke-opacity:1"
       d="m 109.08203,143.15625 c -1.09864,0.56694 -1.82358,1.66289 -2.65102,2.55436 -0.65102,0.84228 -1.43989,1.69297 -1.68898,2.74486 -0.0748,1.73267 0.15674,3.49914 -0.18344,5.20859 -0.76931,2.38098 -1.84526,4.6926 -3.28775,6.74122 -1.49173,2.06634 -3.763852,3.79338 -4.166887,6.45898 -0.580647,4.2454 -1.351403,8.6303 -3.673765,12.3142 -1.431972,2.05705 -3.313835,3.75957 -4.708538,5.84941 -1.698889,2.32564 -3.099484,4.94191 -3.516301,7.82531 -0.431427,3.48697 -1.910179,6.67599 -3.377946,9.84615 -1.162882,2.31342 -2.235822,4.60683 -3.756125,6.7149 -1.548413,1.93727 -3.539481,3.43075 -5.389948,5.05504 -0.629897,0.71667 -1.47907,1.22389 -2.454768,1.23971 -0.09441,0.53984 -0.369978,1.17085 0.392579,1.28321 0.44454,0.2443 1.508712,0.63137 1.496842,0.63818 1.165457,0.50542 2.583866,0.37066 3.520798,-0.53256 3.328855,-2.71223 5.934881,-6.3054 7.483923,-10.31148 1.833599,-4.4993 3.234751,-9.28968 6.269503,-13.17625 2.6645,-3.49395 5.86349,-6.91329 7.047417,-11.29369 0.619365,-2.23894 0.576036,-4.65981 1.676463,-6.76027 1.778124,-3.83712 5.467533,-6.37932 7.217743,-10.22629 0.76142,-1.85414 0.36313,-3.90845 0.5253,-5.85524 0.15361,-3.76282 1.18282,-7.47491 2.27882,-10.99378 0.45947,-1.61372 1.2297,-3.13361 1.64083,-4.75437 -0.1928,-0.28502 -0.24806,-0.68614 -0.69475,-0.57019 z" /><path
       style="fill:#e8cc86;fill-opacity:1;stroke:#000000;stroke-width:1;stroke-linecap:round;stroke-linejoin:round;stroke-miterlimit:4.3;stroke-opacity:1"
       d="m 115.36712,126.16714 c -5.01698,-4.19078 -39.092299,7.76992 -61.23883,15.55793 -5.286449,1.85902 -15.581583,7.86942 -17.422827,13.80259 -1.660695,5.35138 -0.819928,9.6347 0.876586,15.23428 1.696517,5.5996 11.188768,33.41624 23.596969,41.02353 12.408188,7.60729 11.798524,2.2817 12.833496,-3.67136 1.034971,-5.95307 27.766836,-59.88367 29.261106,-62.64743 3.28645,-6.07848 14.55791,-17.24098 12.0935,-19.29954 z"
       id="path1"
       sodipodi:nodetypes="ssssssss" /><path
       style="fill:none;fill-opacity:1;stroke:#000000;stroke-width:1;stroke-linecap:round;stroke-linejoin:round;stroke-miterlimit:4.3;stroke-opacity:1"
       d="m 111.62808,130.75538 c 0,0 -2.26184,-0.21979 -4.22812,-0.0426 -6.12107,0.55163 -43.78726,13.98676 -51.772656,17.64682 -7.985393,3.66007 -14.723512,5.74369 -14.773804,10.18475 -0.07733,6.82894 14.569439,39.00524 18.516053,43.96581"
       id="path2"
       sodipodi:nodetypes="csssc" /><path
       style="fill:none;fill-opacity:1;stroke:#000000;stroke-width:1;stroke-linecap:round;stroke-linejoin:round;stroke-miterlimit:4.3;stroke-opacity:1"
       d="m 89.815261,167.35741 c 0,0 -31.482315,-10.29464 -38.086177,-9.85045"
       id="path3" /><path
       style="fill:none;fill-opacity:1;stroke:#000000;stroke-width:1;stroke-linecap:round;stroke-linejoin:round;stroke-miterlimit:4.3;stroke-opacity:1"
       d="m 97.08712,146.63682 c 0,0 -0.821083,-1.37674 -2.137706,-0.30149"
       id="path119"
       sodipodi:nodetypes="cc" /><use
       id="use242"
       inkscape:spray-origin="#path119"
       xlink:href="#path119"
       transform="matrix(-0.46396982,1.0398005,-1.0406123,-0.46396982,303.75222,104.21532)"
       style="stroke-width:0.71465" /><use
       id="use243"
       inkscape:spray-origin="#path119"
       xlink:href="#path119"
       transform="matrix(-1.2155034,0.27118968,-0.27140141,-1.2155034,258.25914,294.75857)"
       style="stroke-width:0.653582" /><use
       id="use244"
       inkscape:spray-origin="#path119"
       xlink:href="#path119"
       transform="matrix(0.24268767,-1.1059436,1.106807,0.24268767,-87.305636,207.58565)"
       style="stroke-width:0.718631" /><use
       id="use245"
       inkscape:spray-origin="#path119"
       xlink:href="#path119"
       transform="matrix(0.46555309,0.55789509,-0.55833067,0.46555309,141.95678,17.694112)"
       style="stroke-width:1.11996" /><use
       id="use246"
       inkscape:spray-origin="#path119"
       xlink:href="#path119"
       transform="matrix(-0.55926004,-1.2928755,1.2938849,-0.55926004,-37.32763,349.12895)"
       style="stroke-width:0.577652" /><use
       id="use247"
       inkscape:spray-origin="#path119"
       xlink:href="#path119"
       transform="matrix(-0.17012895,-0.74649932,0.74708215,-0.17012895,2.0183691,238.19405)"
       style="stroke-width:1.06274" /><use
       id="use248"
       inkscape:spray-origin="#path119"
       xlink:href="#path119"
       transform="matrix(1.3509899,0.29995132,-0.30018551,1.3509899,15.999173,-86.749756)"
       style="stroke-width:0.588172" /><use
       id="use249"
       inkscape:spray-origin="#path119"
       xlink:href="#path119"
       transform="matrix(0.04983652,-0.82929124,0.82993871,0.04983652,-27.027309,220.67643)"
       style="stroke-width:0.979387" /><use
       id="use251"
       inkscape:spray-origin="#path119"
       xlink:href="#path119"
       transform="matrix(-0.77729901,0.56516547,-0.56560672,-0.77729901,253.57671,214.67754)"
       style="stroke-width:0.846855" /><use
       id="use252"
       inkscape:spray-origin="#path119"
       xlink:href="#path119"
       transform="matrix(-0.11104721,1.3876349,-1.3887183,-0.11104721,309.01147,35.199276)"
       style="stroke-width:0.584499" /><use
       id="use253"
       inkscape:spray-origin="#path119"
       xlink:href="#path119"
       transform="matrix(1.1616993,-0.78205972,0.78267032,1.1616993,-132.76791,62.82204)"
       style="stroke-width:0.58117" /><use
       id="use254"
       inkscape:spray-origin="#path119"
       xlink:href="#path119"
       transform="matrix(-0.38337733,0.75658556,-0.75717626,-0.38337733,237.17637,152.91952)"
       style="stroke-width:0.959388" /><use
       id="use255"
       inkscape:spray-origin="#path119"
       xlink:href="#path119"
       transform="matrix(-1.2111585,0.64451032,-0.64501352,-1.2111585,301.72139,279.44677)"
       style="stroke-width:0.593242" /><use
       id="use256"
       inkscape:spray-origin="#path119"
       xlink:href="#path119"
       transform="matrix(-0.28836967,1.3871919,-1.3882749,-0.28836967,317.30354,71.926471)"
       style="stroke-width:0.574285" /><use
       id="use257"
       inkscape:spray-origin="#path119"
       xlink:href="#path119"
       transform="matrix(0.40515188,-1.3322204,1.3332606,0.40515188,-144.25034,229.44098)"
       style="stroke-width:0.58435" /><use
       id="use258"
       inkscape:spray-origin="#path119"
       xlink:href="#path119"
       transform="matrix(-0.87214182,-0.66702224,0.66754302,-0.87214182,67.937283,358.98594)"
       style="stroke-width:0.741238" /><use
       id="use259"
       inkscape:spray-origin="#path119"
       xlink:href="#path119"
       transform="matrix(-1.2412873,0.12032498,-0.12041892,-1.2412873,222.87345,340.40445)"
       style="stroke-width:0.652692" /><use
       id="use260"
       inkscape:spray-origin="#path119"
       xlink:href="#path119"
       transform="matrix(-0.44364906,1.1525301,-1.1534299,-0.44364906,298.49868,127.71073)"
       style="stroke-width:0.658884" /><use
       id="use261"
       inkscape:spray-origin="#path119"
       xlink:href="#path119"
       transform="matrix(-0.75198725,0.01326533,-0.01327569,-0.75198725,153.38038,286.56907)"
       style="stroke-width:1.08227" /><use
       id="use262"
       inkscape:spray-origin="#path119"
       xlink:href="#path119"
       transform="matrix(0.37188985,-0.65519363,0.65570517,0.37188985,-46.789509,176.46722)"
       style="stroke-width:1.08012" /><use
       id="use263"
       inkscape:spray-origin="#path119"
       xlink:href="#path119"
       transform="matrix(0.39049581,-0.74428464,0.74486574,0.39049581,-74.160999,197.53405)"
       style="stroke-width:0.968146" /><use
       id="use265"
       inkscape:spray-origin="#path119"
       xlink:href="#path119"
       transform="matrix(0.8936086,-0.76331258,0.76390854,0.8936086,-118.75465,130.54094)"
       style="stroke-width:0.692494" /><use
       id="use266"
       inkscape:spray-origin="#path119"
       xlink:href="#path119"
       transform="matrix(0.55966227,0.50274004,-0.50313256,0.55966227,97.104802,64.375807)"
       style="stroke-width:1.08179" /><use
       id="use269"
       inkscape:spray-origin="#path119"
       xlink:href="#path119"
       transform="matrix(0.90358655,-0.00133222,0.00133326,0.90358655,-13.793583,64.886878)"
       style="stroke-width:0.90083" /><use
       id="use270"
       inkscape:spray-origin="#path119"
       xlink:href="#path119"
       transform="matrix(-1.1833292,-0.10643983,0.10652293,-1.1833292,167.86171,384.64537)"
       style="stroke-width:0.685104" /><use
       id="use271"
       inkscape:spray-origin="#path119"
       xlink:href="#path119"
       transform="matrix(1.3813907,0.10888702,-0.10897204,1.3813907,-48.086564,-15.688392)"
       style="stroke-width:0.587422" /><use
       id="use272"
       inkscape:spray-origin="#path119"
       xlink:href="#path119"
       transform="matrix(0.60447173,0.61789447,-0.61837689,0.60447173,104.70073,59.419474)"
       style="stroke-width:0.941488" /><use
       id="use274"
       inkscape:spray-origin="#path119"
       xlink:href="#path119"
       transform="matrix(0.38367044,0.74926039,-0.74984538,0.38367044,144.5727,76.062368)"
       style="stroke-width:0.966673" /><use
       id="use275"
       inkscape:spray-origin="#path119"
       xlink:href="#path119"
       transform="matrix(-0.40189977,1.2621485,-1.2631339,-0.40189977,292.67373,145.40798)"
       style="stroke-width:0.614295" /><use
       id="use276"
       inkscape:spray-origin="#path119"
       xlink:href="#path119"
       transform="matrix(0.61778712,-0.70064062,0.70118765,0.61778712,-88.012746,179.2165)"
       style="stroke-width:0.871201" /><use
       id="use277"
       inkscape:spray-origin="#path119"
       xlink:href="#path119"
       transform="matrix(0.77218985,0.59164769,-0.59210962,0.77218985,84.28226,29.899776)"
       style="stroke-width:0.836624" /><use
       id="use278"
       inkscape:spray-origin="#path119"
       xlink:href="#path119"
       transform="matrix(1.202939,-0.35483689,0.35511393,1.202939,-104.9832,62.033902)"
       style="stroke-width:0.648992" /><use
       id="use279"
       inkscape:spray-origin="#path119"
       xlink:href="#path119"
       transform="matrix(0.97129276,-0.1191142,0.1192072,0.97129276,-46.267748,77.527335)"
       style="stroke-width:0.831797" /><use
       id="use280"
       inkscape:spray-origin="#path119"
       xlink:href="#path119"
       transform="matrix(1.1472341,0.47946438,-0.47983872,1.1472341,26.679544,-8.228725)"
       style="stroke-width:0.654604" /><use
       id="use281"
       inkscape:spray-origin="#path119"
       xlink:href="#path119"
       transform="matrix(-0.28878524,-1.3512229,1.3522779,-0.28878524,-104.98384,371.85587)"
       style="stroke-width:0.588878" /><use
       id="use282"
       inkscape:spray-origin="#path119"
       xlink:href="#path119"
       transform="matrix(0.97378571,0.16844485,-0.16857636,0.97378571,-8.986409,40.127391)"
       style="stroke-width:0.823649" /><use
       id="use283"
       inkscape:spray-origin="#path119"
       xlink:href="#path119"
       transform="matrix(-0.56884296,0.69647245,-0.69701622,-0.56884296,226.05773,220.59015)"
       style="stroke-width:0.904957" /><use
       id="use286"
       inkscape:spray-origin="#path119"
       xlink:href="#path119"
       transform="matrix(-0.79718489,-0.45134633,0.45169872,-0.79718489,81.146189,353.04803)"
       style="stroke-width:0.88845" /><use
       id="use287"
       inkscape:spray-origin="#path119"
       xlink:href="#path119"
       transform="matrix(1.0428368,-0.48119922,0.48157491,1.0428368,-111.38296,83.436091)"
       style="stroke-width:0.708681" /><use
       id="use288"
       inkscape:spray-origin="#path119"
       xlink:href="#path119"
       transform="matrix(0.82200589,0.71613891,-0.71669804,0.82200589,92.015009,-5.391453)"
       style="stroke-width:0.746503" /><use
       id="use290"
       inkscape:spray-origin="#path119"
       xlink:href="#path119"
       transform="matrix(0.34392291,0.74716212,-0.74774547,0.34392291,146.75186,57.677963)"
       style="stroke-width:0.989302" /><use
       id="use292"
       inkscape:spray-origin="#path119"
       xlink:href="#path119"
       transform="matrix(-0.55512865,0.9378016,-0.93853379,-0.55512865,267.70254,166.28528)"
       style="stroke-width:0.746698" /><use
       id="use293"
       inkscape:spray-origin="#path119"
       xlink:href="#path119"
       transform="matrix(0.52576777,0.61435082,-0.61483047,0.52576777,112.4131,40.051086)"
       style="stroke-width:1.0064" /><use
       id="use294"
       inkscape:spray-origin="#path119"
       xlink:href="#path119"
       transform="matrix(-0.36171349,-1.135434,1.1363205,-0.36171349,-51.297512,335.12533)"
       style="stroke-width:0.682822" /><use
       id="use295"
       inkscape:spray-origin="#path119"
       xlink:href="#path119"
       transform="matrix(-0.2931194,0.84707781,-0.84773916,-0.2931194,228.42089,134.44492)"
       style="stroke-width:0.907782" /><use
       id="use297"
       inkscape:spray-origin="#path119"
       xlink:href="#path119"
       transform="matrix(0.76302998,-0.76951636,0.77011716,0.76302998,-109.0172,128.05298)"
       style="stroke-width:0.750974" /><use
       id="use298"
       inkscape:spray-origin="#path119"
       xlink:href="#path119"
       transform="matrix(-0.11489384,1.2824425,-1.2834437,-0.11489384,283.49993,52.325114)"
       style="stroke-width:0.631933" /><use
       id="use300"
       inkscape:spray-origin="#path119"
       xlink:href="#path119"
       transform="matrix(0.81948803,0.07517796,-0.07523665,0.81948803,21.261553,24.067005)"
       style="stroke-width:0.989123" /><use
       id="use301"
       inkscape:spray-origin="#path119"
       xlink:href="#path119"
       transform="matrix(1.3137882,-0.61602199,0.61650295,1.3137882,-123.53229,15.434406)"
       style="stroke-width:0.560922" /><use
       id="use302"
       inkscape:spray-origin="#path119"
       xlink:href="#path119"
       transform="matrix(0.25052841,0.96564696,-0.96640089,0.25052841,208.61007,22.651022)"
       style="stroke-width:0.815623" /><use
       id="use303"
       inkscape:spray-origin="#path119"
       xlink:href="#path119"
       transform="matrix(0.77812782,-0.79321206,0.79383136,0.77812782,-99.058975,117.31827)"
       style="stroke-width:0.732405" /><use
       id="use304"
       inkscape:spray-origin="#path119"
       xlink:href="#path119"
       transform="matrix(-0.84181856,-0.48219052,0.48256699,-0.84181856,96.063502,321.46528)"
       style="stroke-width:0.838952" /><use
       id="use305"
       inkscape:spray-origin="#path119"
       xlink:href="#path119"
       transform="matrix(-1.0417304,-0.66587784,0.66639772,-1.0417304,88.385018,365.84022)"
       style="stroke-width:0.658291" /><use
       id="use306"
       inkscape:spray-origin="#path119"
       xlink:href="#path119"
       transform="matrix(-0.76244644,-0.08778219,0.08785072,-0.76244644,150.14405,262.91536)"
       style="stroke-width:1.06057" /><use
       id="use307"
       inkscape:spray-origin="#path119"
       xlink:href="#path119"
       transform="matrix(1.1556913,0.53733214,-0.53775166,1.1556913,55.158433,-80.72574)"
       style="stroke-width:0.638621" /><use
       id="use309"
       inkscape:spray-origin="#path119"
       xlink:href="#path119"
       transform="matrix(-0.7498582,-0.08385854,0.08392401,-0.7498582,145.94705,264.17868)"
       style="stroke-width:1.07878" /><use
       id="use310"
       inkscape:spray-origin="#path119"
       xlink:href="#path119"
       transform="matrix(0.9628407,0.30932833,-0.30956984,0.9628407,27.942853,-26.942726)"
       style="stroke-width:0.804847" /><use
       id="use312"
       inkscape:spray-origin="#path119"
       xlink:href="#path119"
       transform="matrix(-0.52116281,-0.49972977,0.50011993,-0.52116281,49.042849,277.3414)"
       style="stroke-width:1.12712" /><use
       id="use313"
       inkscape:spray-origin="#path119"
       xlink:href="#path119"
       transform="matrix(-0.21182105,0.9762899,-0.97705213,-0.21182105,236.70004,96.088826)"
       style="stroke-width:0.814483" /><use
       id="use314"
       inkscape:spray-origin="#path119"
       xlink:href="#path119"
       transform="matrix(0.61165593,0.79998781,-0.8006124,0.61165593,131.25986,6.9163624)"
       style="stroke-width:0.808099" /><use
       id="use315"
       inkscape:spray-origin="#path119"
       xlink:href="#path119"
       transform="matrix(0.56923009,0.88535495,-0.88604619,0.56923009,145.02646,-0.39765018)"
       style="stroke-width:0.773121" /><use
       id="use316"
       inkscape:spray-origin="#path119"
       xlink:href="#path119"
       transform="matrix(-0.65775304,-0.95548663,0.95623262,-0.65775304,-10.988783,359.4496)"
       style="stroke-width:0.701522" /><use
       id="use317"
       inkscape:spray-origin="#path119"
       xlink:href="#path119"
       transform="matrix(-1.4631796,0.2258591,-0.22603544,-1.4631796,243.87697,362.87215)"
       style="stroke-width:0.549791" /><use
       id="use318"
       inkscape:spray-origin="#path119"
       xlink:href="#path119"
       transform="matrix(0.52659694,1.1585669,-1.1594715,0.52659694,182.25272,-3.907713)"
       style="stroke-width:0.639398" /><use
       id="use321"
       inkscape:spray-origin="#path119"
       xlink:href="#path119"
       transform="matrix(1.186597,-0.52316334,0.5235718,1.186597,-131.41776,57.403406)"
       style="stroke-width:0.627639" /><use
       id="use322"
       inkscape:spray-origin="#path119"
       xlink:href="#path119"
       transform="matrix(-1.1168092,0.77779061,-0.77839787,-1.1168092,283.05407,264.85244)"
       style="stroke-width:0.598014" /><use
       id="use325"
       inkscape:spray-origin="#path119"
       xlink:href="#path119"
       transform="matrix(0.65864585,-0.61718791,0.61766978,0.65864585,-101.44194,141.57636)"
       style="stroke-width:0.901628" /><use
       id="use326"
       inkscape:spray-origin="#path119"
       xlink:href="#path119"
       transform="matrix(-1.0745377,0.83989026,-0.84054601,-1.0745377,281.58203,256.78722)"
       style="stroke-width:0.596742" /><use
       id="use327"
       inkscape:spray-origin="#path119"
       xlink:href="#path119"
       transform="matrix(-0.3633018,-0.76514861,0.765746,-0.3633018,-23.320495,299.27441)"
       style="stroke-width:0.96069" /><use
       id="use328"
       inkscape:spray-origin="#path119"
       xlink:href="#path119"
       transform="matrix(-1.1565401,-0.03362995,0.03365621,-1.1565401,164.65646,343.39879)"
       style="stroke-width:0.703507" /><use
       id="use329"
       inkscape:spray-origin="#path119"
       xlink:href="#path119"
       transform="matrix(0.71779672,1.0275024,-1.0283046,0.71779672,137.79275,-30.016275)"
       style="stroke-width:0.64925" /><use
       id="use331"
       inkscape:spray-origin="#path119"
       xlink:href="#path119"
       transform="matrix(0.04734251,0.52086812,-0.52127478,0.04734251,135.13471,109.7098)"
       style="stroke-width:1.55572" /><use
       id="use332"
       inkscape:spray-origin="#path119"
       xlink:href="#path119"
       transform="matrix(-0.36632841,1.366049,-1.3671156,-0.36632841,299.9679,90.13715)"
       style="stroke-width:0.575319" /><use
       id="use334"
       inkscape:spray-origin="#path119"
       xlink:href="#path119"
       transform="matrix(0.73612684,-0.52231324,0.52272104,0.73612684,-83.660263,104.18393)"
       style="stroke-width:0.901693" /><use
       id="use335"
       inkscape:spray-origin="#path119"
       xlink:href="#path119"
       transform="matrix(0.50672789,0.95364779,-0.95439235,0.50672789,153.76775,0.28248092)"
       style="stroke-width:0.753514" /><use
       id="use336"
       inkscape:spray-origin="#path119"
       xlink:href="#path119"
       transform="matrix(1.3686469,-0.56693708,0.56737971,1.3686469,-151.31272,10.634415)"
       style="stroke-width:0.549426" /><use
       id="use338"
       inkscape:spray-origin="#path119"
       xlink:href="#path119"
       transform="matrix(0.45365668,-1.0499589,1.0507787,0.45365668,-140.65889,189.48786)"
       style="stroke-width:0.711426" /><use
       id="use339"
       inkscape:spray-origin="#path119"
       xlink:href="#path119"
       transform="matrix(-0.03467175,-1.2432586,1.2442292,-0.03467175,-118.71344,278.68424)"
       style="stroke-width:0.654204" /><use
       id="use340"
       inkscape:spray-origin="#path119"
       xlink:href="#path119"
       transform="matrix(-1.061888,-0.14594336,0.1460573,-1.061888,147.80429,321.79695)"
       style="stroke-width:0.759395" /><use
       id="use341"
       inkscape:spray-origin="#path119"
       xlink:href="#path119"
       transform="matrix(-0.8224476,-0.48788686,0.48826778,-0.8224476,70.386162,320.46663)"
       style="stroke-width:0.851112" /><path
       style="fill:none;fill-opacity:1;stroke:#000000;stroke-width:1;stroke-linecap:round;stroke-linejoin:round;stroke-miterlimit:4.3;stroke-opacity:1"
       d="m 115.31896,128.43995 c 0,0 1.37313,5.45774 -0.48409,7.3593 -4.70355,4.81582 -9.47272,19.4275 -8.8424,25.90394 0.72429,7.44197 -8.187723,9.38448 -8.911849,18.27136 -0.51929,6.37303 -6.318565,11.8194 -8.080977,14.35389 -3.524832,5.06897 -5.131398,12.03416 -6.978228,15.37771 -1.84683,3.34355 -4.994172,6.8835 -7.123005,8.11218 -2.323408,1.34096 -6.796623,-2.27167 -6.796623,-2.27167"
       id="path341"
       sodipodi:nodetypes="cssssssc" /><path
       style="fill:none;fill-opacity:1;stroke:#000000;stroke-width:1;stroke-linecap:round;stroke-linejoin:round;stroke-miterlimit:4.3;stroke-opacity:1"
       d="m 110.7556,141.46112 c 0,0 -6.7846,4.98212 -6.2452,7.98849 0.51022,2.84371 -0.0114,4.82933 -2.08185,8.8644 -2.0704,4.03507 -5.298076,5.14257 -5.600884,9.10788 -0.302803,3.96533 -1.886331,10.23257 -4.678431,13.1757 -2.792102,2.94314 -6.873342,8.01259 -7.155753,12.61563 -0.24637,4.01563 -5.090853,13.26922 -6.702126,15.665 -1.706864,2.53792 -5.518539,5.16706 -5.518539,5.16706"
       id="path342"
       sodipodi:nodetypes="cszssssc" /></g><g
     inkscape:groupmode="layer"
     id="layer2"
     inkscape:label="Layer 2"
     style="display:none;opacity:0.5"
     sodipodi:insensitive="true"
     transform="translate(-25.811629,-121.70887)"><image
       width="190.5"
       height="127"
       preserveAspectRatio="none"
       xlink:href="../../../Bureau/super-easy-pizza-jaffles-161972-2.jpg"
       id="image1"
       x="6.9987483"
       y="98.302933"
       inkscape:label="image1"
       style="opacity:1" /></g></svg>
